<?xml version="1.0" standalone="no"?>
<!DOCTYPE svg PUBLIC "-//W3C//DTD SVG 20010904//EN"
 "http://www.w3.org/TR/2001/REC-SVG-20010904/DTD/svg10.dtd">
<svg version="1.0" xmlns="http://www.w3.org/2000/svg"
 width="650.000000pt" height="650.000000pt" viewBox="0 0 650.000000 650.000000"
 preserveAspectRatio="xMidYMid meet">
<metadata>
Created by potrace 1.14, written by Peter Selinger 2001-2017
</metadata>
<g transform="translate(0.000000,650.000000) scale(0.100000,-0.100000)"
fill="#000000" stroke="none">
<path d="M0 3250 l0 -3250 3250 0 3250 0 0 2210 c0 1216 -4 2210 -8 2210 -13
0 -36 -52 -33 -77 1 -11 -3 -24 -8 -28 -7 -3 -11 -42 -11 -90 0 -46 -4 -87
-10 -90 -5 -3 -10 -21 -10 -40 0 -19 -4 -37 -10 -40 -6 -3 -10 -19 -10 -35 0
-16 -5 -32 -11 -36 -8 -5 -9 6 -5 37 4 24 9 71 11 104 2 33 9 69 14 80 6 11
12 54 15 95 3 41 7 89 10 105 2 17 5 40 5 53 1 18 7 22 31 22 l30 0 0 1010 0
1010 -3250 0 -3250 0 0 -3250z m4983 733 c-7 -2 -21 -2 -30 0 -10 3 -4 5 12 5
17 0 24 -2 18 -5z m60 0 c-7 -2 -21 -2 -30 0 -10 3 -4 5 12 5 17 0 24 -2 18
-5z m1324 -155 c-3 -8 -6 -5 -6 6 -1 11 2 17 5 13 3 -3 4 -12 1 -19z m-6317
-1103 c5 -11 12 -58 14 -105 9 -142 17 -215 27 -224 5 -6 9 -16 9 -24 0 -9 -8
-5 -20 11 -11 14 -20 39 -20 55 0 17 -5 34 -10 37 -6 4 -10 55 -10 121 0 69
-4 114 -10 114 -12 0 -14 123 -2 134 4 4 8 -16 10 -46 1 -29 7 -62 12 -73z
m6135 -602 c-4 -36 -11 -53 -21 -53 -18 0 -18 29 1 105 8 33 15 94 17 135 2
65 3 62 6 -30 2 -58 0 -129 -3 -157z"/>
<path d="M6453 4445 c-3 -9 -3 -19 0 -22 4 -3 2 -15 -4 -27 -9 -20 -9 -20 4
-3 8 10 14 26 12 35 -1 9 3 20 9 24 8 5 7 8 -2 8 -7 0 -15 -7 -19 -15z"/>
</g>
</svg>
