<?xml version="1.0" standalone="no"?>
<!DOCTYPE svg PUBLIC "-//W3C//DTD SVG 20010904//EN"
 "http://www.w3.org/TR/2001/REC-SVG-20010904/DTD/svg10.dtd">
<svg version="1.0" xmlns="http://www.w3.org/2000/svg"
 width="512.000000pt" height="512.000000pt" viewBox="0 0 512.000000 512.000000"
 preserveAspectRatio="xMidYMid meet">

<g transform="translate(0.000000,512.000000) scale(0.100000,-0.100000)"
fill="#000000" stroke="none">
<path d="M1111 4959 c-35 -10 -65 -20 -67 -22 -3 -3 155 -629 160 -634 1 -1
18 2 37 7 19 5 53 14 75 19 l42 11 -82 320 c-44 176 -85 319 -91 319 -5 -1
-39 -10 -74 -20z"/>
<path d="M3474 4937 c-25 -22 -29 -36 -50 -183 -13 -87 -24 -165 -24 -172 0
-7 -11 -24 -25 -37 -27 -28 -80 -34 -107 -12 -8 6 -57 68 -108 137 -51 69
-100 131 -108 138 -9 6 -31 12 -50 12 -28 0 -58 -18 -159 -92 l-123 -93 -173
-1 c-190 -1 -306 -20 -469 -74 -491 -164 -874 -581 -992 -1081 -14 -57 -28
-131 -31 -164 -11 -105 -14 -115 -39 -115 -50 0 -70 -36 -100 -183 -22 -102
-33 -137 -42 -133 -8 3 -60 38 -116 78 -151 106 -144 108 -319 -68 -117 -118
-139 -145 -139 -170 0 -22 24 -65 81 -148 44 -65 79 -119 77 -121 -2 -2 -64
-16 -138 -31 -190 -40 -180 -25 -180 -264 0 -239 -10 -224 180 -264 74 -15
136 -29 138 -31 2 -2 -32 -57 -77 -122 -56 -82 -81 -126 -81 -147 0 -24 22
-52 128 -158 136 -139 170 -163 209 -153 14 3 70 38 126 76 55 39 106 73 112
75 8 3 21 -41 41 -133 40 -193 25 -183 262 -183 242 0 222 -15 267 195 14 65
28 121 30 123 2 2 57 -32 122 -77 64 -45 126 -81 136 -81 30 0 59 19 124 82
l61 61 4 -149 c4 -179 20 -224 103 -304 l54 -50 3 -257 c3 -251 4 -259 28
-308 31 -64 101 -134 165 -165 49 -24 56 -25 285 -25 229 0 236 1 285 25 64
31 134 101 165 165 24 49 25 57 28 308 l3 257 54 50 c91 87 98 114 105 390 7
260 12 283 77 378 25 36 68 76 132 123 53 38 112 82 131 98 l35 30 -54 55 -55
56 -30 -25 c-17 -14 -72 -54 -122 -90 -99 -69 -154 -128 -202 -215 -57 -103
-64 -144 -69 -393 -5 -212 -7 -230 -27 -260 -12 -17 -37 -42 -55 -54 -34 -23
-36 -23 -401 -23 -365 0 -367 0 -401 23 -18 12 -43 37 -55 54 -20 30 -22 48
-26 260 -5 197 -8 237 -27 293 -44 136 -110 221 -246 315 -210 147 -369 325
-473 531 -43 85 -98 249 -119 352 -24 123 -24 395 0 512 129 609 630 1054
1236 1097 l88 6 6 -29 c3 -16 51 -90 107 -164 55 -74 103 -145 107 -159 8 -34
-8 -73 -39 -90 -24 -14 -43 -13 -195 8 -92 13 -179 21 -192 20 -48 -8 -58 -39
-96 -306 -36 -256 -37 -273 -2 -301 8 -7 92 -23 187 -37 198 -29 220 -39 220
-106 0 -47 -11 -59 -140 -154 -146 -108 -160 -122 -160 -162 0 -27 28 -69 153
-235 87 -117 163 -208 179 -216 38 -18 58 -7 211 108 94 70 142 100 161 100
32 0 86 -49 86 -77 0 -10 -11 -88 -23 -173 -13 -85 -20 -166 -17 -179 11 -49
41 -59 299 -96 134 -19 250 -35 257 -35 7 0 24 10 38 23 22 20 27 38 46 172
27 198 28 203 53 225 21 20 82 27 102 12 6 -4 56 -69 113 -145 96 -128 126
-157 167 -157 23 0 429 308 443 336 8 14 11 36 8 48 -3 12 -48 78 -99 147 -52
68 -99 134 -105 146 -15 28 -15 64 2 85 26 35 55 36 230 11 93 -13 180 -22
192 -19 13 4 31 17 39 29 13 20 85 468 85 528 0 10 -10 30 -22 44 -21 24 -37
28 -198 51 -158 22 -177 27 -197 50 -32 36 -30 83 5 116 15 14 74 60 132 103
186 138 187 122 -10 384 -82 110 -161 207 -175 217 -15 10 -34 14 -49 10 -13
-3 -88 -53 -166 -111 -78 -58 -148 -105 -155 -105 -28 0 -65 20 -80 44 -15 23
-15 36 9 196 15 105 21 181 16 194 -18 47 -37 53 -294 90 -137 20 -255 36
-262 36 -7 0 -25 -10 -40 -23z m288 -168 c79 -11 144 -22 146 -24 2 -2 -4 -51
-12 -109 -27 -179 -20 -235 39 -312 55 -72 183 -98 275 -57 25 11 87 53 139
92 52 39 98 68 101 64 4 -5 48 -63 99 -130 l91 -122 -109 -83 c-144 -109 -171
-151 -171 -261 0 -60 18 -102 63 -148 51 -52 95 -69 234 -89 69 -10 127 -21
130 -24 5 -5 -35 -308 -42 -315 -2 -2 -55 4 -117 13 -176 25 -212 21 -295 -35
-55 -38 -85 -101 -86 -182 -1 -74 11 -99 102 -222 37 -49 70 -95 74 -101 4 -7
-32 -40 -91 -85 -53 -40 -111 -83 -129 -96 l-31 -24 -63 83 c-115 153 -157
185 -255 195 -67 7 -126 -14 -176 -62 -52 -51 -69 -94 -88 -232 -9 -68 -20
-126 -23 -130 -7 -6 -305 31 -313 40 -3 3 2 53 10 111 28 189 17 254 -55 323
-46 43 -97 63 -164 63 -74 0 -106 -15 -224 -104 -55 -42 -102 -76 -104 -76 -3
0 -37 44 -78 98 -40 53 -83 111 -96 128 l-23 31 113 85 c128 98 156 137 164
227 7 70 -8 120 -49 167 -55 62 -101 81 -242 101 -82 11 -130 22 -133 30 -5
13 33 303 41 310 2 2 49 -3 104 -12 159 -24 217 -21 279 15 76 44 107 94 111
185 5 90 -5 112 -102 244 -43 57 -74 107 -69 111 4 4 63 48 130 98 l121 91 87
-115 c74 -99 94 -119 138 -140 122 -57 257 -12 316 104 11 22 27 90 36 158 9
65 18 125 20 132 6 16 9 16 177 -9z m-2667 -2028 c14 -57 24 -105 23 -106 -2
-1 -24 -7 -51 -14 -83 -20 -159 -63 -224 -127 -277 -271 -123 -741 263 -805
175 -29 370 60 472 214 29 44 20 47 153 -54 87 -66 114 -95 149 -162 l25 -47
-89 -89 -89 -89 -76 53 c-110 76 -137 88 -188 82 -49 -5 -104 -39 -126 -77 -8
-14 -25 -73 -38 -132 l-22 -108 -98 0 -97 0 -11 51 c-40 185 -41 187 -83 223
-45 39 -109 55 -155 38 -15 -5 -68 -37 -118 -71 l-89 -61 -74 73 -74 74 65 96
c75 110 87 148 63 211 -31 80 -66 99 -249 136 l-57 11 0 99 0 99 58 11 c182
37 217 56 248 136 24 63 12 101 -63 211 l-65 96 74 74 74 73 89 -61 c108 -74
132 -83 191 -74 66 9 118 60 135 128 15 60 8 73 54 -112z m111 -308 c91 -163
154 -254 232 -335 l45 -47 -26 -44 c-33 -56 -97 -113 -156 -140 -69 -32 -178
-30 -252 5 -107 49 -173 142 -186 258 -15 150 70 280 220 331 81 28 92 26 123
-28z m1674 -1633 l0 -80 -320 0 -320 0 0 80 0 80 320 0 320 0 0 -80z m0 -304
c0 -72 -22 -115 -79 -153 -33 -22 -42 -23 -241 -23 -199 0 -208 1 -241 23 -57
38 -79 81 -79 153 l0 64 320 0 320 0 0 -64z"/>
<path d="M3510 4208 c-139 -14 -272 -80 -380 -188 -125 -124 -180 -259 -180
-437 0 -362 271 -633 633 -633 178 0 312 55 438 181 63 62 85 93 122 170 55
116 68 168 68 278 -1 107 -20 181 -74 285 -75 144 -231 275 -389 325 -55 18
-165 27 -238 19z m208 -173 c167 -53 286 -182 327 -357 20 -85 19 -134 -5
-212 -31 -100 -64 -158 -125 -219 -99 -99 -209 -147 -337 -147 -263 0 -478
214 -478 474 0 211 122 386 315 454 112 39 194 41 303 7z"/>
<path d="M407 4490 c-21 -28 -40 -57 -43 -64 -4 -10 86 -79 271 -211 152 -109
278 -195 281 -193 16 16 84 113 84 119 0 8 -542 399 -551 399 -3 0 -22 -23
-42 -50z"/>
<path d="M1889 4011 c-300 -227 -479 -633 -439 -998 27 -257 141 -494 325
-679 104 -105 180 -158 352 -244 108 -53 154 -83 196 -124 88 -87 157 -231
157 -328 l0 -38 79 0 80 0 -5 38 c-22 169 -76 297 -171 401 -76 84 -139 129
-264 188 -141 67 -218 120 -315 217 -114 115 -193 244 -242 396 -87 268 -41
565 126 820 38 57 169 194 236 245 l38 30 -38 62 c-22 35 -42 63 -45 63 -3 0
-35 -22 -70 -49z"/>
<path d="M540 3678 c-173 -44 -316 -80 -317 -82 -1 -1 2 -18 7 -37 5 -19 14
-53 19 -75 l11 -42 317 80 c175 44 319 80 320 82 3 2 -34 147 -39 150 -2 2
-145 -33 -318 -76z"/>
<path d="M4080 1920 l0 -80 280 0 280 0 0 80 0 80 -280 0 -280 0 0 -80z"/>
<path d="M4000 1520 l-53 -61 34 -28 c19 -16 126 -106 239 -200 l205 -171 52
57 c29 32 51 61 50 64 -1 4 -101 89 -222 189 -121 101 -227 189 -236 197 -14
12 -23 7 -69 -47z"/>
<path d="M2480 1320 l0 -120 80 0 80 0 0 120 0 120 -80 0 -80 0 0 -120z"/>
<path d="M3600 1080 l0 -280 80 0 80 0 0 280 0 280 -80 0 -80 0 0 -280z"/>
</g>
</svg>
